# xmcd
#
# Track frame offsets:
# 150
# 17046
# 33722
# 50772
# 66510
#
# Disc length: 1083 seconds
#
# Revision: 0
# Processed by: cddbd v1.5.2PL0 Copyright (c) Steve Scherf et al.
# Submitted via: Audion 3.0.2 (http://www.panic.com/audion/)
#
DISCID=47043905
DTITLE=IMANY - acoustic sessions
DYEAR=1900
DGENRE=
TTITLE0=slow down
TTITLE1=you will never know
TTITLE2=kisses in the dark
TTITLE3=pray for help
TTITLE4=I'll be there
EXTD=
EXTT0=
EXTT1=
EXTT2=
EXTT3=
EXTT4=
PLAYORDER=
